<?xml version="1.0" standalone="no"?>
<!DOCTYPE svg PUBLIC "-//W3C//DTD SVG 20010904//EN"
 "http://www.w3.org/TR/2001/REC-SVG-20010904/DTD/svg10.dtd">
<svg version="1.0" xmlns="http://www.w3.org/2000/svg"
 width="200.000000pt" height="200.000000pt" viewBox="0 0 200.000000 200.000000"
 preserveAspectRatio="xMidYMid meet">
<metadata>
Created by potrace 1.14, written by Peter Selinger 2001-2017
</metadata>
<g transform="translate(0.000000,200.000000) scale(0.100000,-0.100000)"
fill="#000000" stroke="none">
<path d="M1132 1789 c-88 -17 -84 -27 32 -84 269 -132 390 -427 284 -695 -59
-148 -169 -258 -318 -316 -51 -20 -63 -33 -49 -50 29 -35 287 -34 315 1 11 14
116 58 146 60 17 2 99 64 131 100 24 27 90 124 105 155 46 94 64 287 36 390
-54 200 -199 356 -392 421 -69 23 -216 32 -290 18z"/>
<path d="M897 1596 c-12 -12 -30 -40 -40 -62 -14 -30 -31 -47 -72 -69 -96 -51
-95 -109 3 -159 33 -17 54 -36 71 -67 35 -63 51 -79 81 -79 33 0 59 24 85 78
14 29 33 48 62 63 60 31 83 56 83 88 0 31 -15 47 -78 82 -30 16 -52 39 -73 76
-17 29 -35 55 -40 59 -25 15 -62 10 -82 -10z"/>
<path d="M421 1098 c-47 -23 -62 -64 -56 -158 7 -117 3 -124 -96 -197 -93 -68
-107 -91 -95 -155 5 -27 51 -77 72 -78 16 0 135 -39 162 -52 16 -8 29 -33 47
-90 42 -132 69 -168 128 -168 49 0 81 26 137 109 33 49 64 84 77 87 12 3 66 7
120 8 113 3 123 6 146 45 37 62 28 91 -54 196 -27 34 -50 72 -52 85 -2 12 9
58 25 102 37 104 37 146 0 181 -44 42 -78 44 -182 7 -84 -31 -94 -32 -133 -20
-65 19 -89 33 -97 56 -19 49 -92 70 -149 42z"/>
<path d="M1470 533 c-17 -26 -43 -52 -59 -59 -35 -15 -55 -47 -46 -74 3 -11
24 -29 45 -41 22 -13 46 -37 55 -56 31 -65 87 -68 120 -7 11 20 36 47 57 60
69 44 67 78 -6 123 -19 12 -41 37 -50 55 -30 63 -76 63 -116 -1z"/>
</g>
</svg>
